<svg xmlns="http://www.w3.org/2000/svg" viewBox="0 0 800 485" role="img" aria-label="DP와 ZeRO 단계별로 GPU가 보관하는 가중치 gradient optimizer 상태" font-family="system-ui, sans-serif">
<title>DP와 ZeRO 단계별로 GPU가 보관하는 가중치 gradient optimizer 상태</title>
<rect width="800" height="485" fill="white"/>
<text x="400" y="29" font-size="22" text-anchor="middle" fill="#0f172a" font-weight="600">같은 8개 GPU에서 무엇을 나누어 저장할까?</text>
<text x="400" y="57" font-size="18" text-anchor="middle" fill="#0f172a">W: 가중치 · G: gradient · O: master weight + Adam 상태</text>
<text x="100" y="94" font-size="21" text-anchor="middle" fill="#0f172a" font-weight="600">DP</text>
<text x="100" y="120" font-size="18" text-anchor="middle" fill="#0f172a">N0:G0</text>
<text x="17" y="149" font-size="18" text-anchor="start" fill="#0f172a">W</text>
<rect x="40" y="132" width="16" height="23" rx="1" fill="#0f172a" stroke="#94a3b8"/>
<rect x="58" y="132" width="16" height="23" rx="1" fill="#0f172a" stroke="#94a3b8"/>
<rect x="76" y="132" width="16" height="23" rx="1" fill="#0f172a" stroke="#94a3b8"/>
<rect x="94" y="132" width="16" height="23" rx="1" fill="#0f172a" stroke="#94a3b8"/>
<rect x="112" y="132" width="16" height="23" rx="1" fill="#0f172a" stroke="#94a3b8"/>
<rect x="130" y="132" width="16" height="23" rx="1" fill="#0f172a" stroke="#94a3b8"/>
<rect x="148" y="132" width="16" height="23" rx="1" fill="#0f172a" stroke="#94a3b8"/>
<rect x="166" y="132" width="16" height="23" rx="1" fill="#0f172a" stroke="#94a3b8"/>
<text x="17" y="180" font-size="18" text-anchor="start" fill="#0f172a">G</text>
<rect x="40" y="163" width="16" height="23" rx="1" fill="#0f172a" stroke="#94a3b8"/>
<rect x="58" y="163" width="16" height="23" rx="1" fill="#0f172a" stroke="#94a3b8"/>
<rect x="76" y="163" width="16" height="23" rx="1" fill="#0f172a" stroke="#94a3b8"/>
<rect x="94" y="163" width="16" height="23" rx="1" fill="#0f172a" stroke="#94a3b8"/>
<rect x="112" y="163" width="16" height="23" rx="1" fill="#0f172a" stroke="#94a3b8"/>
<rect x="130" y="163" width="16" height="23" rx="1" fill="#0f172a" stroke="#94a3b8"/>
<rect x="148" y="163" width="16" height="23" rx="1" fill="#0f172a" stroke="#94a3b8"/>
<rect x="166" y="163" width="16" height="23" rx="1" fill="#0f172a" stroke="#94a3b8"/>
<text x="17" y="211" font-size="18" text-anchor="start" fill="#0f172a">O</text>
<rect x="40" y="194" width="16" height="23" rx="1" fill="#0f172a" stroke="#94a3b8"/>
<rect x="58" y="194" width="16" height="23" rx="1" fill="#0f172a" stroke="#94a3b8"/>
<rect x="76" y="194" width="16" height="23" rx="1" fill="#0f172a" stroke="#94a3b8"/>
<rect x="94" y="194" width="16" height="23" rx="1" fill="#0f172a" stroke="#94a3b8"/>
<rect x="112" y="194" width="16" height="23" rx="1" fill="#0f172a" stroke="#94a3b8"/>
<rect x="130" y="194" width="16" height="23" rx="1" fill="#0f172a" stroke="#94a3b8"/>
<rect x="148" y="194" width="16" height="23" rx="1" fill="#0f172a" stroke="#94a3b8"/>
<rect x="166" y="194" width="16" height="23" rx="1" fill="#0f172a" stroke="#94a3b8"/>
<text x="100" y="252" font-size="18" text-anchor="middle" fill="#0f172a">N0:G1</text>
<text x="17" y="281" font-size="18" text-anchor="start" fill="#0f172a">W</text>
<rect x="40" y="264" width="16" height="23" rx="1" fill="#0f172a" stroke="#94a3b8"/>
<rect x="58" y="264" width="16" height="23" rx="1" fill="#0f172a" stroke="#94a3b8"/>
<rect x="76" y="264" width="16" height="23" rx="1" fill="#0f172a" stroke="#94a3b8"/>
<rect x="94" y="264" width="16" height="23" rx="1" fill="#0f172a" stroke="#94a3b8"/>
<rect x="112" y="264" width="16" height="23" rx="1" fill="#0f172a" stroke="#94a3b8"/>
<rect x="130" y="264" width="16" height="23" rx="1" fill="#0f172a" stroke="#94a3b8"/>
<rect x="148" y="264" width="16" height="23" rx="1" fill="#0f172a" stroke="#94a3b8"/>
<rect x="166" y="264" width="16" height="23" rx="1" fill="#0f172a" stroke="#94a3b8"/>
<text x="17" y="312" font-size="18" text-anchor="start" fill="#0f172a">G</text>
<rect x="40" y="295" width="16" height="23" rx="1" fill="#0f172a" stroke="#94a3b8"/>
<rect x="58" y="295" width="16" height="23" rx="1" fill="#0f172a" stroke="#94a3b8"/>
<rect x="76" y="295" width="16" height="23" rx="1" fill="#0f172a" stroke="#94a3b8"/>
<rect x="94" y="295" width="16" height="23" rx="1" fill="#0f172a" stroke="#94a3b8"/>
<rect x="112" y="295" width="16" height="23" rx="1" fill="#0f172a" stroke="#94a3b8"/>
<rect x="130" y="295" width="16" height="23" rx="1" fill="#0f172a" stroke="#94a3b8"/>
<rect x="148" y="295" width="16" height="23" rx="1" fill="#0f172a" stroke="#94a3b8"/>
<rect x="166" y="295" width="16" height="23" rx="1" fill="#0f172a" stroke="#94a3b8"/>
<text x="17" y="343" font-size="18" text-anchor="start" fill="#0f172a">O</text>
<rect x="40" y="326" width="16" height="23" rx="1" fill="#0f172a" stroke="#94a3b8"/>
<rect x="58" y="326" width="16" height="23" rx="1" fill="#0f172a" stroke="#94a3b8"/>
<rect x="76" y="326" width="16" height="23" rx="1" fill="#0f172a" stroke="#94a3b8"/>
<rect x="94" y="326" width="16" height="23" rx="1" fill="#0f172a" stroke="#94a3b8"/>
<rect x="112" y="326" width="16" height="23" rx="1" fill="#0f172a" stroke="#94a3b8"/>
<rect x="130" y="326" width="16" height="23" rx="1" fill="#0f172a" stroke="#94a3b8"/>
<rect x="148" y="326" width="16" height="23" rx="1" fill="#0f172a" stroke="#94a3b8"/>
<rect x="166" y="326" width="16" height="23" rx="1" fill="#0f172a" stroke="#94a3b8"/>
<text x="100" y="384" font-size="16" text-anchor="middle" fill="#64748b">G2–G7도 같은 규칙</text>
<text x="100" y="420" font-size="21" text-anchor="middle" fill="#0f172a" font-weight="600">128 GB / GPU</text>
<text x="300" y="94" font-size="21" text-anchor="middle" fill="#0f172a" font-weight="600">ZeRO-1</text>
<text x="300" y="120" font-size="18" text-anchor="middle" fill="#0f172a">N0:G0</text>
<text x="217" y="149" font-size="18" text-anchor="start" fill="#0f172a">W</text>
<rect x="240" y="132" width="16" height="23" rx="1" fill="#0f172a" stroke="#94a3b8"/>
<rect x="258" y="132" width="16" height="23" rx="1" fill="#0f172a" stroke="#94a3b8"/>
<rect x="276" y="132" width="16" height="23" rx="1" fill="#0f172a" stroke="#94a3b8"/>
<rect x="294" y="132" width="16" height="23" rx="1" fill="#0f172a" stroke="#94a3b8"/>
<rect x="312" y="132" width="16" height="23" rx="1" fill="#0f172a" stroke="#94a3b8"/>
<rect x="330" y="132" width="16" height="23" rx="1" fill="#0f172a" stroke="#94a3b8"/>
<rect x="348" y="132" width="16" height="23" rx="1" fill="#0f172a" stroke="#94a3b8"/>
<rect x="366" y="132" width="16" height="23" rx="1" fill="#0f172a" stroke="#94a3b8"/>
<text x="217" y="180" font-size="18" text-anchor="start" fill="#0f172a">G</text>
<rect x="240" y="163" width="16" height="23" rx="1" fill="#0f172a" stroke="#94a3b8"/>
<rect x="258" y="163" width="16" height="23" rx="1" fill="#0f172a" stroke="#94a3b8"/>
<rect x="276" y="163" width="16" height="23" rx="1" fill="#0f172a" stroke="#94a3b8"/>
<rect x="294" y="163" width="16" height="23" rx="1" fill="#0f172a" stroke="#94a3b8"/>
<rect x="312" y="163" width="16" height="23" rx="1" fill="#0f172a" stroke="#94a3b8"/>
<rect x="330" y="163" width="16" height="23" rx="1" fill="#0f172a" stroke="#94a3b8"/>
<rect x="348" y="163" width="16" height="23" rx="1" fill="#0f172a" stroke="#94a3b8"/>
<rect x="366" y="163" width="16" height="23" rx="1" fill="#0f172a" stroke="#94a3b8"/>
<text x="217" y="211" font-size="18" text-anchor="start" fill="#0f172a">O</text>
<rect x="240" y="194" width="16" height="23" rx="1" fill="#0f172a" stroke="#94a3b8"/>
<rect x="258" y="194" width="16" height="23" rx="1" fill="white" stroke="#94a3b8"/>
<rect x="276" y="194" width="16" height="23" rx="1" fill="white" stroke="#94a3b8"/>
<rect x="294" y="194" width="16" height="23" rx="1" fill="white" stroke="#94a3b8"/>
<rect x="312" y="194" width="16" height="23" rx="1" fill="white" stroke="#94a3b8"/>
<rect x="330" y="194" width="16" height="23" rx="1" fill="white" stroke="#94a3b8"/>
<rect x="348" y="194" width="16" height="23" rx="1" fill="white" stroke="#94a3b8"/>
<rect x="366" y="194" width="16" height="23" rx="1" fill="white" stroke="#94a3b8"/>
<text x="300" y="252" font-size="18" text-anchor="middle" fill="#0f172a">N0:G1</text>
<text x="217" y="281" font-size="18" text-anchor="start" fill="#0f172a">W</text>
<rect x="240" y="264" width="16" height="23" rx="1" fill="#0f172a" stroke="#94a3b8"/>
<rect x="258" y="264" width="16" height="23" rx="1" fill="#0f172a" stroke="#94a3b8"/>
<rect x="276" y="264" width="16" height="23" rx="1" fill="#0f172a" stroke="#94a3b8"/>
<rect x="294" y="264" width="16" height="23" rx="1" fill="#0f172a" stroke="#94a3b8"/>
<rect x="312" y="264" width="16" height="23" rx="1" fill="#0f172a" stroke="#94a3b8"/>
<rect x="330" y="264" width="16" height="23" rx="1" fill="#0f172a" stroke="#94a3b8"/>
<rect x="348" y="264" width="16" height="23" rx="1" fill="#0f172a" stroke="#94a3b8"/>
<rect x="366" y="264" width="16" height="23" rx="1" fill="#0f172a" stroke="#94a3b8"/>
<text x="217" y="312" font-size="18" text-anchor="start" fill="#0f172a">G</text>
<rect x="240" y="295" width="16" height="23" rx="1" fill="#0f172a" stroke="#94a3b8"/>
<rect x="258" y="295" width="16" height="23" rx="1" fill="#0f172a" stroke="#94a3b8"/>
<rect x="276" y="295" width="16" height="23" rx="1" fill="#0f172a" stroke="#94a3b8"/>
<rect x="294" y="295" width="16" height="23" rx="1" fill="#0f172a" stroke="#94a3b8"/>
<rect x="312" y="295" width="16" height="23" rx="1" fill="#0f172a" stroke="#94a3b8"/>
<rect x="330" y="295" width="16" height="23" rx="1" fill="#0f172a" stroke="#94a3b8"/>
<rect x="348" y="295" width="16" height="23" rx="1" fill="#0f172a" stroke="#94a3b8"/>
<rect x="366" y="295" width="16" height="23" rx="1" fill="#0f172a" stroke="#94a3b8"/>
<text x="217" y="343" font-size="18" text-anchor="start" fill="#0f172a">O</text>
<rect x="240" y="326" width="16" height="23" rx="1" fill="white" stroke="#94a3b8"/>
<rect x="258" y="326" width="16" height="23" rx="1" fill="#0f172a" stroke="#94a3b8"/>
<rect x="276" y="326" width="16" height="23" rx="1" fill="white" stroke="#94a3b8"/>
<rect x="294" y="326" width="16" height="23" rx="1" fill="white" stroke="#94a3b8"/>
<rect x="312" y="326" width="16" height="23" rx="1" fill="white" stroke="#94a3b8"/>
<rect x="330" y="326" width="16" height="23" rx="1" fill="white" stroke="#94a3b8"/>
<rect x="348" y="326" width="16" height="23" rx="1" fill="white" stroke="#94a3b8"/>
<rect x="366" y="326" width="16" height="23" rx="1" fill="white" stroke="#94a3b8"/>
<text x="300" y="384" font-size="16" text-anchor="middle" fill="#64748b">G2–G7도 같은 규칙</text>
<text x="300" y="420" font-size="21" text-anchor="middle" fill="#0f172a" font-weight="600">44 GB / GPU</text>
<text x="500" y="94" font-size="21" text-anchor="middle" fill="#0f172a" font-weight="600">ZeRO-2</text>
<text x="500" y="120" font-size="18" text-anchor="middle" fill="#0f172a">N0:G0</text>
<text x="417" y="149" font-size="18" text-anchor="start" fill="#0f172a">W</text>
<rect x="440" y="132" width="16" height="23" rx="1" fill="#0f172a" stroke="#94a3b8"/>
<rect x="458" y="132" width="16" height="23" rx="1" fill="#0f172a" stroke="#94a3b8"/>
<rect x="476" y="132" width="16" height="23" rx="1" fill="#0f172a" stroke="#94a3b8"/>
<rect x="494" y="132" width="16" height="23" rx="1" fill="#0f172a" stroke="#94a3b8"/>
<rect x="512" y="132" width="16" height="23" rx="1" fill="#0f172a" stroke="#94a3b8"/>
<rect x="530" y="132" width="16" height="23" rx="1" fill="#0f172a" stroke="#94a3b8"/>
<rect x="548" y="132" width="16" height="23" rx="1" fill="#0f172a" stroke="#94a3b8"/>
<rect x="566" y="132" width="16" height="23" rx="1" fill="#0f172a" stroke="#94a3b8"/>
<text x="417" y="180" font-size="18" text-anchor="start" fill="#0f172a">G</text>
<rect x="440" y="163" width="16" height="23" rx="1" fill="#0f172a" stroke="#94a3b8"/>
<rect x="458" y="163" width="16" height="23" rx="1" fill="white" stroke="#94a3b8"/>
<rect x="476" y="163" width="16" height="23" rx="1" fill="white" stroke="#94a3b8"/>
<rect x="494" y="163" width="16" height="23" rx="1" fill="white" stroke="#94a3b8"/>
<rect x="512" y="163" width="16" height="23" rx="1" fill="white" stroke="#94a3b8"/>
<rect x="530" y="163" width="16" height="23" rx="1" fill="white" stroke="#94a3b8"/>
<rect x="548" y="163" width="16" height="23" rx="1" fill="white" stroke="#94a3b8"/>
<rect x="566" y="163" width="16" height="23" rx="1" fill="white" stroke="#94a3b8"/>
<text x="417" y="211" font-size="18" text-anchor="start" fill="#0f172a">O</text>
<rect x="440" y="194" width="16" height="23" rx="1" fill="#0f172a" stroke="#94a3b8"/>
<rect x="458" y="194" width="16" height="23" rx="1" fill="white" stroke="#94a3b8"/>
<rect x="476" y="194" width="16" height="23" rx="1" fill="white" stroke="#94a3b8"/>
<rect x="494" y="194" width="16" height="23" rx="1" fill="white" stroke="#94a3b8"/>
<rect x="512" y="194" width="16" height="23" rx="1" fill="white" stroke="#94a3b8"/>
<rect x="530" y="194" width="16" height="23" rx="1" fill="white" stroke="#94a3b8"/>
<rect x="548" y="194" width="16" height="23" rx="1" fill="white" stroke="#94a3b8"/>
<rect x="566" y="194" width="16" height="23" rx="1" fill="white" stroke="#94a3b8"/>
<text x="500" y="252" font-size="18" text-anchor="middle" fill="#0f172a">N0:G1</text>
<text x="417" y="281" font-size="18" text-anchor="start" fill="#0f172a">W</text>
<rect x="440" y="264" width="16" height="23" rx="1" fill="#0f172a" stroke="#94a3b8"/>
<rect x="458" y="264" width="16" height="23" rx="1" fill="#0f172a" stroke="#94a3b8"/>
<rect x="476" y="264" width="16" height="23" rx="1" fill="#0f172a" stroke="#94a3b8"/>
<rect x="494" y="264" width="16" height="23" rx="1" fill="#0f172a" stroke="#94a3b8"/>
<rect x="512" y="264" width="16" height="23" rx="1" fill="#0f172a" stroke="#94a3b8"/>
<rect x="530" y="264" width="16" height="23" rx="1" fill="#0f172a" stroke="#94a3b8"/>
<rect x="548" y="264" width="16" height="23" rx="1" fill="#0f172a" stroke="#94a3b8"/>
<rect x="566" y="264" width="16" height="23" rx="1" fill="#0f172a" stroke="#94a3b8"/>
<text x="417" y="312" font-size="18" text-anchor="start" fill="#0f172a">G</text>
<rect x="440" y="295" width="16" height="23" rx="1" fill="white" stroke="#94a3b8"/>
<rect x="458" y="295" width="16" height="23" rx="1" fill="#0f172a" stroke="#94a3b8"/>
<rect x="476" y="295" width="16" height="23" rx="1" fill="white" stroke="#94a3b8"/>
<rect x="494" y="295" width="16" height="23" rx="1" fill="white" stroke="#94a3b8"/>
<rect x="512" y="295" width="16" height="23" rx="1" fill="white" stroke="#94a3b8"/>
<rect x="530" y="295" width="16" height="23" rx="1" fill="white" stroke="#94a3b8"/>
<rect x="548" y="295" width="16" height="23" rx="1" fill="white" stroke="#94a3b8"/>
<rect x="566" y="295" width="16" height="23" rx="1" fill="white" stroke="#94a3b8"/>
<text x="417" y="343" font-size="18" text-anchor="start" fill="#0f172a">O</text>
<rect x="440" y="326" width="16" height="23" rx="1" fill="white" stroke="#94a3b8"/>
<rect x="458" y="326" width="16" height="23" rx="1" fill="#0f172a" stroke="#94a3b8"/>
<rect x="476" y="326" width="16" height="23" rx="1" fill="white" stroke="#94a3b8"/>
<rect x="494" y="326" width="16" height="23" rx="1" fill="white" stroke="#94a3b8"/>
<rect x="512" y="326" width="16" height="23" rx="1" fill="white" stroke="#94a3b8"/>
<rect x="530" y="326" width="16" height="23" rx="1" fill="white" stroke="#94a3b8"/>
<rect x="548" y="326" width="16" height="23" rx="1" fill="white" stroke="#94a3b8"/>
<rect x="566" y="326" width="16" height="23" rx="1" fill="white" stroke="#94a3b8"/>
<text x="500" y="384" font-size="16" text-anchor="middle" fill="#64748b">G2–G7도 같은 규칙</text>
<text x="500" y="420" font-size="21" text-anchor="middle" fill="#0f172a" font-weight="600">30 GB / GPU</text>
<text x="700" y="94" font-size="21" text-anchor="middle" fill="#0f172a" font-weight="600">ZeRO-3</text>
<text x="700" y="120" font-size="18" text-anchor="middle" fill="#0f172a">N0:G0</text>
<text x="617" y="149" font-size="18" text-anchor="start" fill="#0f172a">W</text>
<rect x="640" y="132" width="16" height="23" rx="1" fill="#0f172a" stroke="#94a3b8"/>
<rect x="658" y="132" width="16" height="23" rx="1" fill="white" stroke="#94a3b8"/>
<rect x="676" y="132" width="16" height="23" rx="1" fill="white" stroke="#94a3b8"/>
<rect x="694" y="132" width="16" height="23" rx="1" fill="white" stroke="#94a3b8"/>
<rect x="712" y="132" width="16" height="23" rx="1" fill="white" stroke="#94a3b8"/>
<rect x="730" y="132" width="16" height="23" rx="1" fill="white" stroke="#94a3b8"/>
<rect x="748" y="132" width="16" height="23" rx="1" fill="white" stroke="#94a3b8"/>
<rect x="766" y="132" width="16" height="23" rx="1" fill="white" stroke="#94a3b8"/>
<text x="617" y="180" font-size="18" text-anchor="start" fill="#0f172a">G</text>
<rect x="640" y="163" width="16" height="23" rx="1" fill="#0f172a" stroke="#94a3b8"/>
<rect x="658" y="163" width="16" height="23" rx="1" fill="white" stroke="#94a3b8"/>
<rect x="676" y="163" width="16" height="23" rx="1" fill="white" stroke="#94a3b8"/>
<rect x="694" y="163" width="16" height="23" rx="1" fill="white" stroke="#94a3b8"/>
<rect x="712" y="163" width="16" height="23" rx="1" fill="white" stroke="#94a3b8"/>
<rect x="730" y="163" width="16" height="23" rx="1" fill="white" stroke="#94a3b8"/>
<rect x="748" y="163" width="16" height="23" rx="1" fill="white" stroke="#94a3b8"/>
<rect x="766" y="163" width="16" height="23" rx="1" fill="white" stroke="#94a3b8"/>
<text x="617" y="211" font-size="18" text-anchor="start" fill="#0f172a">O</text>
<rect x="640" y="194" width="16" height="23" rx="1" fill="#0f172a" stroke="#94a3b8"/>
<rect x="658" y="194" width="16" height="23" rx="1" fill="white" stroke="#94a3b8"/>
<rect x="676" y="194" width="16" height="23" rx="1" fill="white" stroke="#94a3b8"/>
<rect x="694" y="194" width="16" height="23" rx="1" fill="white" stroke="#94a3b8"/>
<rect x="712" y="194" width="16" height="23" rx="1" fill="white" stroke="#94a3b8"/>
<rect x="730" y="194" width="16" height="23" rx="1" fill="white" stroke="#94a3b8"/>
<rect x="748" y="194" width="16" height="23" rx="1" fill="white" stroke="#94a3b8"/>
<rect x="766" y="194" width="16" height="23" rx="1" fill="white" stroke="#94a3b8"/>
<text x="700" y="252" font-size="18" text-anchor="middle" fill="#0f172a">N0:G1</text>
<text x="617" y="281" font-size="18" text-anchor="start" fill="#0f172a">W</text>
<rect x="640" y="264" width="16" height="23" rx="1" fill="white" stroke="#94a3b8"/>
<rect x="658" y="264" width="16" height="23" rx="1" fill="#0f172a" stroke="#94a3b8"/>
<rect x="676" y="264" width="16" height="23" rx="1" fill="white" stroke="#94a3b8"/>
<rect x="694" y="264" width="16" height="23" rx="1" fill="white" stroke="#94a3b8"/>
<rect x="712" y="264" width="16" height="23" rx="1" fill="white" stroke="#94a3b8"/>
<rect x="730" y="264" width="16" height="23" rx="1" fill="white" stroke="#94a3b8"/>
<rect x="748" y="264" width="16" height="23" rx="1" fill="white" stroke="#94a3b8"/>
<rect x="766" y="264" width="16" height="23" rx="1" fill="white" stroke="#94a3b8"/>
<text x="617" y="312" font-size="18" text-anchor="start" fill="#0f172a">G</text>
<rect x="640" y="295" width="16" height="23" rx="1" fill="white" stroke="#94a3b8"/>
<rect x="658" y="295" width="16" height="23" rx="1" fill="#0f172a" stroke="#94a3b8"/>
<rect x="676" y="295" width="16" height="23" rx="1" fill="white" stroke="#94a3b8"/>
<rect x="694" y="295" width="16" height="23" rx="1" fill="white" stroke="#94a3b8"/>
<rect x="712" y="295" width="16" height="23" rx="1" fill="white" stroke="#94a3b8"/>
<rect x="730" y="295" width="16" height="23" rx="1" fill="white" stroke="#94a3b8"/>
<rect x="748" y="295" width="16" height="23" rx="1" fill="white" stroke="#94a3b8"/>
<rect x="766" y="295" width="16" height="23" rx="1" fill="white" stroke="#94a3b8"/>
<text x="617" y="343" font-size="18" text-anchor="start" fill="#0f172a">O</text>
<rect x="640" y="326" width="16" height="23" rx="1" fill="white" stroke="#94a3b8"/>
<rect x="658" y="326" width="16" height="23" rx="1" fill="#0f172a" stroke="#94a3b8"/>
<rect x="676" y="326" width="16" height="23" rx="1" fill="white" stroke="#94a3b8"/>
<rect x="694" y="326" width="16" height="23" rx="1" fill="white" stroke="#94a3b8"/>
<rect x="712" y="326" width="16" height="23" rx="1" fill="white" stroke="#94a3b8"/>
<rect x="730" y="326" width="16" height="23" rx="1" fill="white" stroke="#94a3b8"/>
<rect x="748" y="326" width="16" height="23" rx="1" fill="white" stroke="#94a3b8"/>
<rect x="766" y="326" width="16" height="23" rx="1" fill="white" stroke="#94a3b8"/>
<text x="700" y="384" font-size="16" text-anchor="middle" fill="#64748b">G2–G7도 같은 규칙</text>
<text x="700" y="420" font-size="21" text-anchor="middle" fill="#0f172a" font-weight="600">16 GB / GPU</text>
<text x="400" y="453" font-size="18" text-anchor="middle" fill="#0f172a">진한 칸: 해당 GPU가 보관 · 빈 칸: 다른 GPU가 담당</text>
<text x="400" y="478" font-size="17" text-anchor="middle" fill="#64748b">칸은 파라미터 구간을 뜻하며 byte 크기에 비례하지 않는다.</text>
</svg>
